<svg id="Laag_1" data-name="Laag 1" xmlns="http://www.w3.org/2000/svg" viewBox="0 0 753.29 752.02"><defs><style>.cls-1{fill:#fff;}.cls-1,.cls-2,.cls-3{stroke:#000;stroke-miterlimit:10;}.cls-1,.cls-3{stroke-width:10px;}.cls-2,.cls-3{fill:none;}.cls-2{stroke-width:13px;}</style></defs><path class="cls-1" d="M440.23,300.86" transform="translate(-150 -140)"/><path d="M481,153a316.89,316.89,0,1,1-123.78,25A316.16,316.16,0,0,1,481,153m0-13c-182.81,0-331,148.19-331,331S298.19,802,481,802,812,653.81,812,471,663.81,140,481,140Z" transform="translate(-150 -140)"/><circle class="cls-2" cx="331" cy="331" r="89"/><path class="cls-3" d="M231.77,416.56s.53-85.86,84.56-132.38l54.07,101.3s-20.91,11-19.53,32.31Z" transform="translate(-150 -140)"/><path class="cls-3" d="M403.65,226.18s73.94-43.66,157,4.54l-59.13,98.43s-20.16-12.31-37.76-.16Z" transform="translate(-150 -140)"/><path class="cls-3" d="M643.31,281.61s78.15,35.57,86.25,131.28L615,420.83s-1.47-23.58-21.51-31Z" transform="translate(-150 -140)"/><path class="cls-3" d="M313.55,658.5S238.36,617,237.61,521l114.82.85s-.34,23.62,19.07,32.59Z" transform="translate(-150 -140)"/><path class="cls-3" d="M561,716.09s-74.13,43.33-157-5.23l59.56-98.17s20.11,12.39,37.75.32Z" transform="translate(-150 -140)"/><path class="cls-3" d="M724.4,505.06s10.82,85.18-66.34,142.38l-67-93.26s19.29-13.65,15.1-34.61Z" transform="translate(-150 -140)"/><path d="M755,311.27A441,441,0,0,1,801.6,423.64C812.34,465,815.79,507.43,816.05,550c.27,44.54,0,89.07,0,133.61v66.24c0,21.75,0,43.54,3.5,65.07,3.1,19,9.37,38.46,21.17,53.9,10.8,14.12,28.1,27.58,47,21.82a35,35,0,0,0,13.45-7.91c3-2.73,2.77-7.83,0-10.6a7.62,7.62,0,0,0-10.61,0c-6,5.49-12.68,5.84-19.39,3.33-6.35-2.38-12.49-8.19-17.32-14.07-10.72-13-16.62-31.84-19.55-49-3.5-20.43-3.23-41.37-3.22-62v-64.5c0-43.58.26-87.16,0-130.74-.22-42.31-3-84.5-12.62-125.82a450.8,450.8,0,0,0-43.2-112.82q-3.53-6.48-7.27-12.84c-4.89-8.32-17.86-.78-13,7.57Z" transform="translate(-150 -140)"/></svg>