<?xml version="1.0" encoding="UTF-8" standalone="no"?>
<!DOCTYPE svg PUBLIC "-//W3C//DTD SVG 1.1//EN" "http://www.w3.org/Graphics/SVG/1.1/DTD/svg11.dtd">
<svg version="1.1" xmlns="http://www.w3.org/2000/svg" xmlns:xlink="http://www.w3.org/1999/xlink" preserveAspectRatio="xMidYMid meet" viewBox="0 0 640 640" width="640" height="640"><defs><path d="M630.66 522.12L5.38 522.12L10.53 137.93L630.66 137.93L630.66 522.12Z" id="a7zyroi3ps"></path><path d="M572.12 323.95L572.12 430.7L68.15 430.7L68.15 323.95L572.12 323.95Z" id="iu6mMmCdt"></path><path d="M212.04 377.33C212.04 404.05 190.34 425.76 163.61 425.76C136.88 425.76 115.18 404.05 115.18 377.33C115.18 350.6 136.88 328.9 163.61 328.9C190.34 328.9 212.04 350.6 212.04 377.33Z" id="atj2Gu3TB"></path><path d="M513.52 211.42L124.16 211.42L85.49 137.93L554.77 137.93L513.52 211.42Z" id="dhvHYfQAY"></path><path d="M522.88 377.33C522.88 404.05 501.18 425.76 474.45 425.76C447.72 425.76 426.02 404.05 426.02 377.33C426.02 350.6 447.72 328.9 474.45 328.9C501.18 328.9 522.88 350.6 522.88 377.33Z" id="awkSJN47i"></path></defs><g><g><g><use xlink:href="#a7zyroi3ps" opacity="1" fill="#000000" fill-opacity="0"></use><g><use xlink:href="#a7zyroi3ps" opacity="1" fill-opacity="0" stroke="#000000" stroke-width="13" stroke-opacity="1"></use></g></g><g><g><use xlink:href="#iu6mMmCdt" opacity="1" fill-opacity="0" stroke="#000000" stroke-width="13" stroke-opacity="1"></use></g></g><g><use xlink:href="#atj2Gu3TB" opacity="1" fill="#000000" fill-opacity="0"></use><g><use xlink:href="#atj2Gu3TB" opacity="1" fill-opacity="0" stroke="#000000" stroke-width="13" stroke-opacity="1"></use></g></g><g><use xlink:href="#dhvHYfQAY" opacity="1" fill="#000000" fill-opacity="0"></use><g><use xlink:href="#dhvHYfQAY" opacity="1" fill-opacity="0" stroke="#000000" stroke-width="13" stroke-opacity="1"></use></g></g><g><use xlink:href="#awkSJN47i" opacity="1" fill="#000000" fill-opacity="0"></use><g><use xlink:href="#awkSJN47i" opacity="1" fill-opacity="0" stroke="#000000" stroke-width="13" stroke-opacity="1"></use></g></g></g></g></svg>