<?xml version="1.0" encoding="UTF-8" standalone="no"?>
<!DOCTYPE svg PUBLIC "-//W3C//DTD SVG 1.1//EN" "http://www.w3.org/Graphics/SVG/1.1/DTD/svg11.dtd">
<svg version="1.1" xmlns="http://www.w3.org/2000/svg" xmlns:xlink="http://www.w3.org/1999/xlink" preserveAspectRatio="xMidYMid meet" viewBox="0 0 640 640" width="640" height="640"><defs><path d="M594.38 204.49C600.89 204.49 606.17 209.77 606.17 216.28C606.17 292.36 606.17 508.79 606.17 584.87C606.17 591.38 600.89 596.66 594.38 596.66C518.3 596.66 301.87 596.66 225.79 596.66C219.28 596.66 214 591.38 214 584.87C214 508.79 214 292.36 214 216.28C214 209.77 219.28 204.49 225.79 204.49C301.87 204.49 518.3 204.49 594.38 204.49Z" id="d1biPFwrFl"></path><path d="M266.52 299.03L555.98 299.03L555.98 504.45L266.52 504.45L266.52 299.03Z" id="g509xSPyCv"></path><path d="M405.56 134.32C412.07 134.32 417.35 139.6 417.35 146.11C417.35 153.89 417.35 173.35 417.35 204.49C316.36 204.49 253.24 204.49 227.99 204.49C221.46 204.49 216.16 209.76 216.12 216.28C215.84 257.64 215.13 361.04 214 526.49C119.58 526.49 60.57 526.49 36.97 526.49C30.46 526.49 25.18 521.21 25.18 514.7C25.18 438.62 25.18 222.19 25.18 146.11C25.18 139.6 30.46 134.32 36.97 134.32C113.04 134.32 329.48 134.32 405.56 134.32Z" id="dshPJos1R"></path><path d="M77.7 228.74L216.2 228.74L216.2 299.03L214 434.17L77.7 434.17L77.7 228.74Z" id="cO53ZMQH2"></path></defs><g><g><g><use xlink:href="#d1biPFwrFl" opacity="1" fill="#000000" fill-opacity="0"></use><g><use xlink:href="#d1biPFwrFl" opacity="1" fill-opacity="0" stroke="#000000" stroke-width="13" stroke-opacity="1"></use></g></g><g><use xlink:href="#g509xSPyCv" opacity="1" fill="#f0f0f0" fill-opacity="0"></use><g><use xlink:href="#g509xSPyCv" opacity="1" fill-opacity="0" stroke="#000000" stroke-width="10" stroke-opacity="1"></use></g></g><g><use xlink:href="#dshPJos1R" opacity="1" fill="#000000" fill-opacity="0"></use><g><use xlink:href="#dshPJos1R" opacity="1" fill-opacity="0" stroke="#000000" stroke-width="13" stroke-opacity="1"></use></g></g><g><use xlink:href="#cO53ZMQH2" opacity="1" fill="#f0f0f0" fill-opacity="0"></use><g><use xlink:href="#cO53ZMQH2" opacity="1" fill-opacity="0" stroke="#000000" stroke-width="10" stroke-opacity="1"></use></g></g></g></g></svg>