<?xml version="1.0" encoding="UTF-8" standalone="no"?>
<!DOCTYPE svg PUBLIC "-//W3C//DTD SVG 1.1//EN" "http://www.w3.org/Graphics/SVG/1.1/DTD/svg11.dtd">
<svg version="1.1" xmlns="http://www.w3.org/2000/svg" xmlns:xlink="http://www.w3.org/1999/xlink" preserveAspectRatio="xMidYMid meet" viewBox="0 0 640 640" width="640" height="640"><defs><path d="M34.37 320.01C34.37 477.49 162.49 605.63 320.01 605.63C477.48 605.63 605.62 477.49 605.62 320.01C605.62 162.52 477.48 34.38 320.01 34.38C162.49 34.38 34.37 162.52 34.37 320.01ZM320.01 640C143.55 640 0 496.45 0 320.01C0 143.56 143.55 0 320.01 0C496.45 0 640 143.56 640 320.01C640 496.45 496.45 640 320.01 640" id="a6ZHmZKPtD"></path><path d="M269.81 321.52C269.81 432.8 269.81 494.62 269.81 506.98C269.81 509.66 271.98 511.81 274.65 511.81C281.54 511.81 336.64 511.81 343.53 511.81C346.19 511.81 348.36 509.66 348.36 506.98C348.36 494.42 348.36 431.59 348.36 318.49C378.31 318.49 394.95 318.49 398.28 318.49C400.79 318.49 402.88 316.57 403.1 314.07C403.58 308.39 407.42 262.96 407.9 257.28C408.13 254.46 405.91 252.04 403.09 252.04C399.44 252.04 381.2 252.04 348.36 252.04C348.36 227.87 348.36 214.44 348.36 211.75C348.36 202.3 356 194.64 365.45 194.64C369.3 194.64 400.08 194.64 403.93 194.64C406.59 194.64 408.76 192.49 408.76 189.83C408.76 184.15 408.76 138.71 408.76 133.03C408.76 130.36 406.59 128.2 403.93 128.2C397.43 128.2 345.41 128.2 338.91 128.2C300.74 128.2 269.81 159.13 269.81 197.28C269.81 200.93 269.81 219.18 269.81 252.04C249.15 252.04 237.67 252.04 235.38 252.04C232.7 252.04 230.55 254.21 230.55 256.87C230.55 262.55 230.55 307.98 230.55 313.66C230.55 316.34 232.7 318.49 235.38 318.49C237.67 318.49 249.15 318.49 269.81 318.49L269.81 321.52" id="c6ee4n9Mn"></path></defs><g><g><g><use xlink:href="#a6ZHmZKPtD" opacity="1" fill="#000000" fill-opacity="1"></use><g><use xlink:href="#a6ZHmZKPtD" opacity="1" fill-opacity="0" stroke="#000000" stroke-width="1" stroke-opacity="0"></use></g></g><g><use xlink:href="#c6ee4n9Mn" opacity="1" fill="#000000" fill-opacity="1"></use><g><use xlink:href="#c6ee4n9Mn" opacity="1" fill-opacity="0" stroke="#000000" stroke-width="1" stroke-opacity="0"></use></g></g></g></g></svg>