<?xml version="1.0" encoding="UTF-8" standalone="no"?>
<!DOCTYPE svg PUBLIC "-//W3C//DTD SVG 1.1//EN" "http://www.w3.org/Graphics/SVG/1.1/DTD/svg11.dtd">
<svg version="1.1" xmlns="http://www.w3.org/2000/svg" xmlns:xlink="http://www.w3.org/1999/xlink" preserveAspectRatio="xMidYMid meet" viewBox="0 0 640 640" width="640" height="640"><defs><path d="M633 237.38L309.13 237.38L299.24 237.38L7 237.38L633 237.38Z" id="b3zKLkNtVd"></path><path d="M633 444.41L5.02 444.41L633 444.41Z" id="a3s4CSK5PI"></path><path d="M208.12 447.87L208.12 237.38L208.12 447.87Z" id="e1lLDguq99"></path><path d="M433.86 451.34L433.86 233.91L433.86 451.34Z" id="du3dDqCgB"></path><path d="M63.02 237.38L24.48 237.38L63.02 237.38Z" id="eiXD9SaHc"></path><path d="M129.36 237.38L90.81 237.38L129.36 237.38Z" id="a5U28tBQR"></path><path d="M195.7 237.38L157.15 237.38L195.7 237.38Z" id="c78ptdhEm"></path><path d="M260.81 237.38L222.27 237.38L260.81 237.38Z" id="c2e5GTJ8QW"></path><path d="M330.12 237.38L291.57 237.38L330.12 237.38Z" id="g1bbSMnWOj"></path><path d="M396.45 237.38L357.91 237.38L396.45 237.38Z" id="f2KIU1QYO7"></path><path d="M462.79 237.38L424.24 237.38L462.79 237.38Z" id="a1csT4T2tA"></path><path d="M527.91 237.38L489.36 237.38L527.91 237.38Z" id="a3kwVciuQr"></path><path d="M597.21 237.38L558.66 237.38L597.21 237.38Z" id="a2bezWOkST"></path><path d="M63.02 444.41L24.48 444.41L63.02 444.41Z" id="adRl8MBh8"></path><path d="M129.36 444.41L90.81 444.41L129.36 444.41Z" id="fh8wSnW2g"></path><path d="M195.7 444.41L157.15 444.41L195.7 444.41Z" id="a1ol7HjMSA"></path><path d="M260.81 444.41L222.27 444.41L260.81 444.41Z" id="a1vmXrEWVa"></path><path d="M330.12 444.41L291.57 444.41L330.12 444.41Z" id="e1ifLsHGfk"></path><path d="M396.45 444.41L357.91 444.41L396.45 444.41Z" id="d4zFIz7fgW"></path><path d="M462.79 444.41L424.24 444.41L462.79 444.41Z" id="d3ChrsUL3h"></path><path d="M527.91 444.41L489.36 444.41L527.91 444.41Z" id="f2IGsoix2e"></path><path d="M597.21 444.41L558.66 444.41L597.21 444.41Z" id="c1yw4ChkQa"></path></defs><g><g><g><g><use xlink:href="#b3zKLkNtVd" opacity="1" fill-opacity="0" stroke="#050404" stroke-width="35" stroke-opacity="1"></use></g></g><g><g><use xlink:href="#a3s4CSK5PI" opacity="1" fill-opacity="0" stroke="#050404" stroke-width="35" stroke-opacity="1"></use></g></g><g><g><use xlink:href="#e1lLDguq99" opacity="1" fill-opacity="0" stroke="#050404" stroke-width="14" stroke-opacity="1"></use></g></g><g><g><use xlink:href="#du3dDqCgB" opacity="1" fill-opacity="0" stroke="#050404" stroke-width="14" stroke-opacity="1"></use></g></g><g><g><use xlink:href="#eiXD9SaHc" opacity="1" fill-opacity="0" stroke="#ffffff" stroke-width="14" stroke-opacity="1"></use></g></g><g><g><use xlink:href="#a5U28tBQR" opacity="1" fill-opacity="0" stroke="#ffffff" stroke-width="14" stroke-opacity="1"></use></g></g><g><g><use xlink:href="#c78ptdhEm" opacity="1" fill-opacity="0" stroke="#ffffff" stroke-width="14" stroke-opacity="1"></use></g></g><g><g><use xlink:href="#c2e5GTJ8QW" opacity="1" fill-opacity="0" stroke="#ffffff" stroke-width="14" stroke-opacity="1"></use></g></g><g><g><use xlink:href="#g1bbSMnWOj" opacity="1" fill-opacity="0" stroke="#ffffff" stroke-width="14" stroke-opacity="1"></use></g></g><g><g><use xlink:href="#f2KIU1QYO7" opacity="1" fill-opacity="0" stroke="#ffffff" stroke-width="14" stroke-opacity="1"></use></g></g><g><g><use xlink:href="#a1csT4T2tA" opacity="1" fill-opacity="0" stroke="#ffffff" stroke-width="14" stroke-opacity="1"></use></g></g><g><g><use xlink:href="#a3kwVciuQr" opacity="1" fill-opacity="0" stroke="#ffffff" stroke-width="14" stroke-opacity="1"></use></g></g><g><g><use xlink:href="#a2bezWOkST" opacity="1" fill-opacity="0" stroke="#ffffff" stroke-width="14" stroke-opacity="1"></use></g></g><g><g><use xlink:href="#adRl8MBh8" opacity="1" fill-opacity="0" stroke="#ffffff" stroke-width="14" stroke-opacity="1"></use></g></g><g><g><use xlink:href="#fh8wSnW2g" opacity="1" fill-opacity="0" stroke="#ffffff" stroke-width="14" stroke-opacity="1"></use></g></g><g><g><use xlink:href="#a1ol7HjMSA" opacity="1" fill-opacity="0" stroke="#ffffff" stroke-width="14" stroke-opacity="1"></use></g></g><g><g><use xlink:href="#a1vmXrEWVa" opacity="1" fill-opacity="0" stroke="#ffffff" stroke-width="14" stroke-opacity="1"></use></g></g><g><g><use xlink:href="#e1ifLsHGfk" opacity="1" fill-opacity="0" stroke="#ffffff" stroke-width="14" stroke-opacity="1"></use></g></g><g><g><use xlink:href="#d4zFIz7fgW" opacity="1" fill-opacity="0" stroke="#ffffff" stroke-width="14" stroke-opacity="1"></use></g></g><g><g><use xlink:href="#d3ChrsUL3h" opacity="1" fill-opacity="0" stroke="#ffffff" stroke-width="14" stroke-opacity="1"></use></g></g><g><g><use xlink:href="#f2IGsoix2e" opacity="1" fill-opacity="0" stroke="#ffffff" stroke-width="14" stroke-opacity="1"></use></g></g><g><g><use xlink:href="#c1yw4ChkQa" opacity="1" fill-opacity="0" stroke="#ffffff" stroke-width="14" stroke-opacity="1"></use></g></g></g></g></svg>