<?xml version="1.0" encoding="UTF-8" standalone="no"?>
<!DOCTYPE svg PUBLIC "-//W3C//DTD SVG 1.1//EN" "http://www.w3.org/Graphics/SVG/1.1/DTD/svg11.dtd">
<svg version="1.1" xmlns="http://www.w3.org/2000/svg" xmlns:xlink="http://www.w3.org/1999/xlink" preserveAspectRatio="xMidYMid meet" viewBox="0 0 640 640" width="640" height="640"><defs><path d="M485.33 397.48C485.33 443.5 448.03 480.8 402 480.8C385.99 480.8 257.89 480.8 241.88 480.8C195.85 480.8 158.55 443.5 158.55 397.48C158.55 381.47 158.55 253.35 158.55 237.34C158.55 191.32 195.85 154.02 241.88 154.02C257.89 154.02 385.99 154.02 402 154.02C448.03 154.02 485.33 191.32 485.33 237.34C485.33 269.37 485.33 365.45 485.33 397.48ZM523.34 237.34C523.34 170.33 469.01 116.01 402 116.01C385.99 116.01 257.89 116.01 241.88 116.01C174.87 116.01 120.56 170.33 120.56 237.34C120.56 253.35 120.56 381.47 120.56 397.48C120.56 464.48 174.87 518.81 241.88 518.81C257.89 518.81 385.99 518.81 402 518.81C469.01 518.81 523.34 464.48 523.34 397.48C523.34 365.45 523.34 269.37 523.34 237.34ZM258.9 320.01C258.9 284.88 287.49 256.29 322.63 256.29C357.75 256.29 386.34 284.88 386.34 320.01C386.34 355.15 357.75 383.73 322.63 383.73C287.49 383.73 258.9 355.15 258.9 320.01ZM223.15 320.01C223.15 374.86 267.78 419.48 322.63 419.48C377.48 419.48 422.09 374.86 422.09 320.01C422.09 265.16 377.48 220.53 322.63 220.53C267.78 220.53 223.15 265.16 223.15 320.01ZM404.22 213.85C404.22 226.93 414.82 237.53 427.91 237.53C440.98 237.53 451.57 226.93 451.57 213.85C451.57 200.78 440.98 190.18 427.91 190.18C414.82 190.18 404.22 200.78 404.22 213.85ZM30.39 320.01C30.39 479.69 160.31 609.61 320 609.61C479.68 609.61 609.6 479.69 609.6 320.01C609.6 160.32 479.68 30.4 320 30.4C160.31 30.4 30.39 160.32 30.39 320.01ZM320 640.01C143.55 640.01 0 496.45 0 320.01C0 143.56 143.55 0 320 0C496.44 0 640 143.56 640 320.01C640 496.45 496.44 640.01 320 640.01" id="a27t1UAAZY"></path></defs><g><g><g><use xlink:href="#a27t1UAAZY" opacity="1" fill="#000000" fill-opacity="1"></use><g><use xlink:href="#a27t1UAAZY" opacity="1" fill-opacity="0" stroke="#000000" stroke-width="1" stroke-opacity="0"></use></g></g></g></g></svg>