<?xml version="1.0" encoding="UTF-8" standalone="no"?>
<!DOCTYPE svg PUBLIC "-//W3C//DTD SVG 1.1//EN" "http://www.w3.org/Graphics/SVG/1.1/DTD/svg11.dtd">
<svg version="1.1" xmlns="http://www.w3.org/2000/svg" xmlns:xlink="http://www.w3.org/1999/xlink" preserveAspectRatio="xMidYMid meet" viewBox="0 0 640 640" width="640" height="640"><defs><path d="M34.42 320C34.42 477.46 162.55 605.56 320.01 605.56C477.46 605.56 605.56 477.46 605.56 320C605.56 162.54 477.46 34.44 320.01 34.44C162.55 34.44 34.42 162.54 34.42 320ZM320.01 640C143.55 640 0 496.45 0 320C0 143.55 143.55 0 320.01 0C496.45 0 640.01 143.55 640.01 320C640.01 496.45 496.45 640 320.01 640" id="f9d550hJa"></path><path d="M344.44 422.66C321.56 420.9 311.93 409.54 293.99 398.64C285.98 440.62 276.54 481.17 254.23 508.85C247.72 516.89 234.61 512.84 234.1 502.51C230.73 435.64 253.82 382.56 265.16 326.58C243.62 290.31 267.76 217.3 313.21 235.3C369.13 257.41 264.78 370.16 334.83 384.23C407.98 398.94 437.84 257.33 392.48 211.27C326.94 144.77 201.71 209.75 217.12 304.95C220.03 323.04 235.21 331.35 233.28 349.23C232.08 360.34 220.63 366.74 210.5 362.01C181.49 348.45 172.5 318.74 173.87 280.94C176.47 208.74 238.74 158.2 301.2 151.2C380.19 142.36 454.33 180.21 464.56 254.51C476.08 338.37 428.9 429.18 344.44 422.66C344.44 422.66 344.44 422.66 344.44 422.66" id="cr9VOfyd9"></path></defs><g><g><g><use xlink:href="#f9d550hJa" opacity="1" fill="#000000" fill-opacity="1"></use><g><use xlink:href="#f9d550hJa" opacity="1" fill-opacity="0" stroke="#000000" stroke-width="1" stroke-opacity="0"></use></g></g><g><use xlink:href="#cr9VOfyd9" opacity="1" fill="#000000" fill-opacity="1"></use><g><use xlink:href="#cr9VOfyd9" opacity="1" fill-opacity="0" stroke="#000000" stroke-width="1" stroke-opacity="0"></use></g></g></g></g></svg>