<?xml version="1.0" encoding="UTF-8" standalone="no"?>
<!DOCTYPE svg PUBLIC "-//W3C//DTD SVG 1.1//EN" "http://www.w3.org/Graphics/SVG/1.1/DTD/svg11.dtd">
<svg version="1.1" xmlns="http://www.w3.org/2000/svg" xmlns:xlink="http://www.w3.org/1999/xlink" preserveAspectRatio="xMidYMid meet" viewBox="0 0 640 640" width="640" height="640"><defs><path d="M34.38 320.01C34.38 477.49 162.51 605.63 320.01 605.63C477.49 605.63 605.62 477.49 605.62 320.01C605.62 162.52 477.49 34.38 320.01 34.38C162.51 34.38 34.38 162.52 34.38 320.01ZM320.01 640C143.56 640 0 496.45 0 320.01C0 143.56 143.56 0 320.01 0C496.44 0 640.01 143.56 640.01 320.01C640.01 496.45 496.44 640 320.01 640" id="bbs86wbBs"></path><path d="M503.91 203.21C492.07 208.58 479.03 211.83 466.24 213.98C472.31 212.96 481.26 201.97 484.83 197.53C490.29 190.75 494.83 183.02 497.39 174.69C497.71 174.03 497.95 173.21 497.31 172.72C496.48 172.39 495.95 172.57 495.3 172.88C481.03 180.54 466.26 186.08 450.55 190.01C449.25 190.34 448.29 190.01 447.47 189.19C446.17 187.73 444.95 186.34 443.56 185.19C436.95 179.58 429.87 175.17 421.87 171.91C411.39 167.63 399.92 165.82 388.62 166.55C377.63 167.27 366.85 170.37 357.09 175.46C347.31 180.57 338.59 187.68 331.64 196.25C324.45 205.11 319.15 215.58 316.44 226.69C313.82 237.4 314.04 248 315.63 258.83C315.87 260.62 315.71 260.87 314.08 260.62C252.62 251.47 201.67 229.48 160.31 182.34C158.51 180.3 157.53 180.3 156.06 182.51C137.95 209.64 146.74 253.22 169.35 274.64C172.37 277.5 175.46 280.35 178.82 282.96C177.58 283.21 162.54 281.57 149.13 274.64C147.33 273.51 146.43 274.16 146.28 276.19C146.11 279.12 146.36 281.82 146.76 285.01C150.23 312.5 169.28 337.94 195.37 347.86C198.45 349.18 201.88 350.31 205.23 350.89C199.29 352.18 193.15 353.12 176.12 351.78C174 351.38 173.19 352.44 174 354.48C186.8 389.38 214.45 399.76 235.14 405.68C237.92 406.16 240.7 406.16 243.47 406.82C243.31 407.07 243.14 407.07 242.97 407.31C236.11 417.78 212.3 425.56 201.22 429.45C181.05 436.49 159.11 439.66 137.8 437.56C134.39 437.05 133.66 437.1 132.75 437.56C131.81 438.13 132.62 438.95 133.72 439.83C138.05 442.69 142.44 445.23 146.94 447.67C160.47 454.84 174.57 460.55 189.32 464.63C265.52 485.67 351.35 470.21 408.55 413.37C453.48 368.73 469.23 307.18 469.23 245.54C469.23 243.13 472.08 241.79 473.78 240.51C485.47 231.73 494.75 221.22 503.48 209.49C505.43 206.85 505.31 204.5 505.31 203.54C505.31 203.38 505.31 203.21 505.31 203.21C505.31 202.23 505.43 202.53 503.91 203.21" id="c33mJG2QCV"></path></defs><g><g><g><use xlink:href="#bbs86wbBs" opacity="1" fill="#000000" fill-opacity="1"></use><g><use xlink:href="#bbs86wbBs" opacity="1" fill-opacity="0" stroke="#000000" stroke-width="1" stroke-opacity="0"></use></g></g><g><use xlink:href="#c33mJG2QCV" opacity="1" fill="#000000" fill-opacity="1"></use><g><use xlink:href="#c33mJG2QCV" opacity="1" fill-opacity="0" stroke="#000000" stroke-width="1" stroke-opacity="0"></use></g></g></g></g></svg>