<?xml version="1.0" encoding="UTF-8" standalone="no"?>
<!DOCTYPE svg PUBLIC "-//W3C//DTD SVG 1.1//EN" "http://www.w3.org/Graphics/SVG/1.1/DTD/svg11.dtd">
<svg version="1.1" xmlns="http://www.w3.org/2000/svg" xmlns:xlink="http://www.w3.org/1999/xlink" preserveAspectRatio="xMidYMid meet" viewBox="0 0 640 640" width="640" height="640"><defs><path d="M631.38 135.33L631.38 508.93L9.7 508.93L9.7 135.33L631.38 135.33Z" id="a3AE3hxDiM"></path><path d="M451.5 253.91L451.5 434.82L190.57 434.82L190.57 253.91L451.5 253.91Z" id="a1HR6Ne3rx"></path><path d="M537.74 253.93C559.48 253.27 572.33 269.84 576.28 303.63C576.28 331.77 576.28 358.75 576.28 384.54C576.28 410.34 563.43 427.09 537.74 434.8C281.42 434.14 139.42 434.14 111.75 434.8C84.07 435.46 68.59 418.71 65.29 384.54C64.63 358.09 64.63 331.12 65.29 303.63C65.95 276.13 81.44 259.57 111.75 253.93C374 254.59 515.99 254.59 537.74 253.93Z" id="cuQWbvD8x"></path><path d="M9.7 135.33L631.38 135.33L631.38 211.43L594.81 211.43L594.81 186.72L47.26 186.72L47.26 211.43L9.7 211.43L9.7 135.33Z" id="f1Uc7uSZJv"></path><path d="M395.16 310.54L245.92 310.54L395.16 310.54Z" id="bEfrmu57"></path><path d="M395.16 351L245.92 351L395.16 351Z" id="bhDunA8A4"></path><path d="M395.16 391.46L245.92 391.46L395.16 391.46Z" id="b15e6xDnTE"></path><path d="M190.57 424.92C137.86 420.31 111.5 395.67 111.5 351C111.5 306.34 137.86 281.23 190.57 275.67L190.57 424.92Z" id="a3vkrlsi"></path><path d="M451.5 424.92C504.21 420.31 530.57 395.67 530.57 351C530.57 306.34 504.21 281.23 451.5 275.67L451.5 424.92Z" id="b1rMdbZcYJ"></path></defs><g><g><g><g><use xlink:href="#a3AE3hxDiM" opacity="1" fill-opacity="0" stroke="#000000" stroke-width="12" stroke-opacity="1"></use></g></g><g><g><use xlink:href="#a1HR6Ne3rx" opacity="1" fill-opacity="0" stroke="#000000" stroke-width="12" stroke-opacity="1"></use></g></g><g><g><use xlink:href="#cuQWbvD8x" opacity="1" fill-opacity="0" stroke="#000000" stroke-width="12" stroke-opacity="1"></use></g></g><g><g><use xlink:href="#f1Uc7uSZJv" opacity="1" fill-opacity="0" stroke="#000000" stroke-width="12" stroke-opacity="1"></use></g></g><g><g><use xlink:href="#bEfrmu57" opacity="1" fill-opacity="0" stroke="#000000" stroke-width="12" stroke-opacity="1"></use></g></g><g><g><use xlink:href="#bhDunA8A4" opacity="1" fill-opacity="0" stroke="#000000" stroke-width="12" stroke-opacity="1"></use></g></g><g><g><use xlink:href="#b15e6xDnTE" opacity="1" fill-opacity="0" stroke="#000000" stroke-width="12" stroke-opacity="1"></use></g></g><g><g><use xlink:href="#a3vkrlsi" opacity="1" fill-opacity="0" stroke="#000000" stroke-width="12" stroke-opacity="1"></use></g></g><g><g><use xlink:href="#b1rMdbZcYJ" opacity="1" fill-opacity="0" stroke="#000000" stroke-width="12" stroke-opacity="1"></use></g></g></g></g></svg>